<?xml version="1.0" encoding="UTF-8"?>
<svg xmlns="http://www.w3.org/2000/svg" width="640" height="960" viewBox="0 0 640 960">

  <defs>
    <style><![CDATA[
      .f { fill:#ffffff; stroke:#000000; stroke-width:5; stroke-linejoin:round; stroke-linecap:round; }
      .fd { fill:none; stroke:#000; stroke-width:3.1; stroke-linejoin:round; stroke-linecap:round; }
      .th { fill:none; stroke:#000; stroke-width:2.3; stroke-linejoin:round; stroke-linecap:round; }
      .mt { fill:none; stroke:#000; stroke-width:2.7; stroke-linejoin:round; stroke-linecap:round; }
    ]]></style>
  </defs>
<g transform="translate(-5,15) scale(0.955)">
<g class="f">
  <!-- hair bun + ring -->
  <ellipse cx="355" cy="92" rx="38" ry="34"/>
  <path class="fd" d="M328,88 Q355,70 382,88"/>
  <path class="fd" d="M335,100 Q355,90 375,100"/>
  <path d="M322,118 Q355,105 388,118 L382,135 Q355,125 328,135 Z"/>
  <!-- hair strands -->
  <path class="th" d="M320,125 C300,140 295,165 305,175"/>
  <path class="th" d="M390,125 C410,140 415,165 405,175"/>

  <!-- head -->
  <path d="M310,135 C318,105 345,95 375,100 C408,105 428,135 425,170
           C422,200 405,225 380,235 C350,245 318,235 305,210 C292,185 298,155 310,135 Z"/>
  <ellipse cx="308" cy="172" rx="12" ry="18"/>
  <path class="fd" d="M306,160 Q300,172 306,186"/>
  <ellipse cx="388" cy="155" rx="5.5" ry="4" fill="#000" stroke="none"/>
  <path class="th" d="M372,143 Q388,135 404,145"/>
  <path class="th" d="M415,165 Q428,172 420,188"/>
  <!-- stern brow ridge -->
  <path class="fd" d="M365,148 Q388,140 408,150"/>

  <!-- full flowing beard -->
  <path d="M315,200 C318,245 338,285 360,298 C382,285 402,245 405,200
           C392,220 375,238 360,245 C345,238 328,220 315,200 Z"/>
  <path class="fd" d="M328,225 Q360,260 392,225"/>
  <path class="fd" d="M338,250 Q360,275 382,250"/>
  <path class="fd" d="M345,270 Q360,285 375,270"/>
  <path class="th" d="M330,215 L325,245 M350,230 L348,275 M370,230 L372,275 M390,215 L395,245"/>
  <path class="th" d="M372,195 Q392,202 402,194"/>

  <!-- neck -->
  <path d="M335,225 L385,225 L393,258 L328,258 Z"/>

  <!-- skull necklace (3 skulls) -->
  <g fill="#fff" stroke="#000" stroke-width="2.6">
    <ellipse cx="332" cy="272" rx="17" ry="15"/>
    <ellipse cx="365" cy="280" rx="17" ry="15"/>
    <ellipse cx="398" cy="272" rx="17" ry="15"/>
    <circle cx="325" cy="268" r="3.2" fill="#000" stroke="none"/>
    <circle cx="339" cy="268" r="3.2" fill="#000" stroke="none"/>
    <circle cx="358" cy="276" r="3.2" fill="#000" stroke="none"/>
    <circle cx="372" cy="276" r="3.2" fill="#000" stroke="none"/>
    <circle cx="391" cy="268" r="3.2" fill="#000" stroke="none"/>
    <circle cx="405" cy="268" r="3.2" fill="#000" stroke="none"/>
    <path class="th" d="M324,280 L330,288 L338,280"/>
    <path class="th" d="M357,288 L363,296 L371,288"/>
    <path class="th" d="M390,280 L396,288 L404,280"/>
    <!-- nasal cavity -->
    <path class="th" d="M332,275 L332,280 M365,283 L365,288 M398,275 L398,280"/>
  </g>
  <circle cx="348" cy="262" r="5" fill="#fff" stroke="#000" stroke-width="2"/>
  <circle cx="382" cy="262" r="5" fill="#fff" stroke="#000" stroke-width="2"/>
  <!-- necklace cord -->
  <path class="th" d="M332,257 Q365,250 398,257"/>

  <!-- sturdy robe -->
  <path d="M255,258 C298,245 360,242 425,252 L465,290 L478,440 L460,570 L360,605 L245,565 L232,415 L245,295 Z"/>
  <path class="fd" d="M280,285 Q340,330 290,430 Q262,510 295,565"/>
  <path class="fd" d="M415,285 Q460,360 440,460 Q422,535 458,565"/>
  <path class="fd" d="M270,270 Q360,300 440,270"/>
  <path class="fd" d="M300,380 Q355,420 410,385"/>
  <path class="fd" d="M310,500 Q360,535 415,505"/>
  <!-- sash with buckle plate -->
  <path d="M248,435 L465,422 L472,465 L242,478 Z"/>
  <path class="fd" d="M255,450 L455,438"/>
  <rect x="340" y="432" width="40" height="28" rx="4" fill="#fff" stroke="#000" stroke-width="3"/>
  <g transform="translate(335,355) scale(0.9)" fill="none" stroke="#000" stroke-width="2.8" stroke-linejoin="round">
      <path d="M-20,6 C-26,-8 -12,-18 0,-10 C6,-22 24,-16 22,0 C34,2 30,16 16,14 C10,24 -8,22 -12,10 C-24,16 -26,8 -20,6 Z"/>
      <path d="M-4,-2 Q4,-10 10,-2" stroke-width="2"/>
    </g>
  <g transform="translate(405,495) scale(0.72)" fill="none" stroke="#000" stroke-width="2.8" stroke-linejoin="round">
      <path d="M-20,6 C-26,-8 -12,-18 0,-10 C6,-22 24,-16 22,0 C34,2 30,16 16,14 C10,24 -8,22 -12,10 C-24,16 -26,8 -20,6 Z"/>
      <path d="M-4,-2 Q4,-10 10,-2" stroke-width="2"/>
    </g>
  <path transform="translate(285,520) scale(0.8)" fill="none" stroke="#000" stroke-width="2.6"
      d="M0,12 C-14,12 -16,-6 -4,-10 C6,-12 12,-2 8,5 C5,10 -2,8 0,2"/>
  <g transform="translate(360,545) scale(0.5)" fill="none" stroke="#000" stroke-width="2.8" stroke-linejoin="round">
      <path d="M-20,6 C-26,-8 -12,-18 0,-10 C6,-22 24,-16 22,0 C34,2 30,16 16,14 C10,24 -8,22 -12,10 C-24,16 -26,8 -20,6 Z"/>
      <path d="M-4,-2 Q4,-10 10,-2" stroke-width="2"/>
    </g>
  <path class="fd" d="M250,562 Q310,585 360,570 Q410,588 465,562"/>

  <!-- left arm -->
  <path d="M255,290 C218,325 185,385 172,450 C162,515 170,560 200,572 L242,560 C225,510 235,455 258,400 C275,350 285,315 298,298 Z"/>
  <path class="fd" d="M185,555 Q215,538 240,555"/>
  <path class="fd" d="M195,400 Q225,435 215,480"/>
  <g transform="translate(205,440) scale(0.48)" fill="none" stroke="#000" stroke-width="2.8" stroke-linejoin="round">
      <path d="M-20,6 C-26,-8 -12,-18 0,-10 C6,-22 24,-16 22,0 C34,2 30,16 16,14 C10,24 -8,22 -12,10 C-24,16 -26,8 -20,6 Z"/>
      <path d="M-4,-2 Q4,-10 10,-2" stroke-width="2"/>
    </g>
  <ellipse cx="208" cy="582" rx="25" ry="15"/>
  <path class="th" d="M194,578 L188,592 M208,574 L208,594 M222,578 L228,592"/>

  <!-- right arm -->
  <path d="M425,280 C478,300 530,350 560,420 C580,480 580,535 560,558 L518,562 C530,505 518,455 485,400 C458,350 438,310 425,295 Z"/>
  <path class="fd" d="M540,542 Q558,525 560,548"/>
  <path class="fd" d="M490,355 Q525,395 515,445"/>
  <g transform="translate(520,410) scale(0.55)" fill="none" stroke="#000" stroke-width="2.8" stroke-linejoin="round">
      <path d="M-20,6 C-26,-8 -12,-18 0,-10 C6,-22 24,-16 22,0 C34,2 30,16 16,14 C10,24 -8,22 -12,10 C-24,16 -26,8 -20,6 Z"/>
      <path d="M-4,-2 Q4,-10 10,-2" stroke-width="2"/>
    </g>
  <ellipse cx="540" cy="572" rx="25" ry="15"/>

  <!-- crescent moon spade 月牙铲 -->
  <g fill="#fff" stroke="#000" stroke-width="4" stroke-linejoin="round">
    <path d="M550,65 L572,65 L572,870 L550,870 Z"/>
    <rect x="542" y="190" width="38" height="13" rx="2"/>
    <rect x="542" y="380" width="38" height="11" rx="2"/>
    <rect x="542" y="560" width="38" height="13" rx="2"/>
    <rect x="542" y="720" width="38" height="11" rx="2"/>
    <!-- crescent -->
    <path d="M561,35
             C500,10 462,65 488,115
             C515,88 538,82 561,88
             C584,82 607,88 634,115
             C660,65 622,10 561,35 Z"/>
    <path class="fd" d="M505,70 Q561,48 617,70"/>
    <path class="fd" d="M520,90 Q561,72 602,90"/>
    <!-- tip spike -->
    <path d="M550,38 L561,2 L572,38 Z"/>
    <!-- butt spike -->
    <path d="M550,870 L561,905 L572,870 Z"/>
  </g>

  <!-- legs -->
  <path d="M272,580 L250,760 L240,842 L302,852 L328,770 L352,600 Z"/>
  <path d="M390,585 L408,765 L422,845 L480,852 L468,765 L448,595 Z"/>
  <path class="fd" d="M265,750 Q295,768 322,752"/>
  <path class="fd" d="M415,760 Q450,778 470,762"/>
  <path class="fd" d="M285,650 Q310,675 330,655"/>
  <path class="fd" d="M410,655 Q440,680 460,658"/>

  <!-- boots -->
  <path d="M230,842 C222,870 260,888 305,880 C328,875 335,855 325,845 Z"/>
  <path d="M415,845 C408,873 450,892 492,882 C512,876 510,855 500,845 Z"/>
  <path class="fd" d="M240,860 Q275,875 312,860"/>
  <path class="fd" d="M425,862 Q465,878 498,860"/>
  <path transform="translate(275,862) scale(0.5)" fill="none" stroke="#000" stroke-width="2.6"
      d="M0,12 C-14,12 -16,-6 -4,-10 C6,-12 12,-2 8,5 C5,10 -2,8 0,2"/>
  <path transform="translate(458,865) scale(0.5)" fill="none" stroke="#000" stroke-width="2.6"
      d="M0,12 C-14,12 -16,-6 -4,-10 C6,-12 12,-2 8,5 C5,10 -2,8 0,2"/>
</g>
<g><circle cx="355" cy="248" r="13" fill="#fff" stroke="#000" stroke-width="3.2"/><circle cx="355" cy="248" r="4.5" fill="#000"/>
<circle cx="242" cy="320" r="13" fill="#fff" stroke="#000" stroke-width="3.2"/><circle cx="242" cy="320" r="4.5" fill="#000"/>
<circle cx="190" cy="455" r="13" fill="#fff" stroke="#000" stroke-width="3.2"/><circle cx="190" cy="455" r="4.5" fill="#000"/>
<circle cx="468" cy="315" r="13" fill="#fff" stroke="#000" stroke-width="3.2"/><circle cx="468" cy="315" r="4.5" fill="#000"/>
<circle cx="548" cy="425" r="13" fill="#fff" stroke="#000" stroke-width="3.2"/><circle cx="548" cy="425" r="4.5" fill="#000"/>
<circle cx="308" cy="590" r="13" fill="#fff" stroke="#000" stroke-width="3.2"/><circle cx="308" cy="590" r="4.5" fill="#000"/>
<circle cx="415" cy="590" r="13" fill="#fff" stroke="#000" stroke-width="3.2"/><circle cx="415" cy="590" r="4.5" fill="#000"/>
<circle cx="288" cy="835" r="13" fill="#fff" stroke="#000" stroke-width="3.2"/><circle cx="288" cy="835" r="4.5" fill="#000"/>
<circle cx="448" cy="835" r="13" fill="#fff" stroke="#000" stroke-width="3.2"/><circle cx="448" cy="835" r="4.5" fill="#000"/></g>
</g>
</svg>
